Coordinates
version=1
nRows=17
nColumns=36
inDegrees=yes

Units are S.I. units (second, meters, Newtons, ...)
If the header above contains a line with 'inDegrees', this indicates whether rotational values are in degrees (yes) or radians (no).

endheader
time	pelvis_tilt	pelvis_list	pelvis_rotation	pelvis_tx	pelvis_ty	pelvis_tz	hip_flexion_r	hip_adduction_r	hip_rotation_r	knee_angle_r	knee_angle_r_beta	ankle_angle_r	subtalar_angle_r	mtp_angle_r	hip_flexion_l	hip_adduction_l	hip_rotation_l	knee_angle_l	knee_angle_l_beta	ankle_angle_l	subtalar_angle_l	mtp_angle_l	lumbar_extension	lumbar_bending	lumbar_rotation	arm_flex_r	arm_add_r	arm_rot_r	elbow_flex_r	pro_sup_r	arm_flex_l	arm_add_l	arm_rot_l	elbow_flex_l	pro_sup_l
      2.83750000	     -0.28042149	     -0.23264785	     -0.46770782	      0.18437669	      0.72323551	     -0.06230799	     57.24033360	    -10.64404398	      2.34976645	     84.06602028	      1.46722884	     26.70990015	     -8.77787265	     -7.49999987	     56.53948092	     -5.27369482	      1.85358527	     86.35206728	      1.50712789	     25.89355948	     -8.94936269	     -7.49999987	    -44.98031774	      4.37656553	      0.51172231	     35.87909686	    -31.32250290	     -5.88008055	     81.05053603	     82.80315370	     44.21501207	    -26.51293911	      1.31299391	     78.17777226	     80.46110897
      2.84166670	     -0.43515077	     -0.20523182	     -0.42376777	      0.19313167	      0.72581395	     -0.05486360	     56.86354617	    -10.02013283	      2.24062342	     83.94570243	      1.46512890	     26.75793121	     -9.91669088	     -7.49999987	     56.24612536	     -5.85365339	      1.93197433	     86.02766704	      1.50146604	     25.69659809	     -8.48582138	     -7.49999987	    -43.97481407	      3.97367543	      0.57390780	     36.52025305	    -31.59481164	     -4.93008427	     84.20376512	     82.95025565	     46.37157392	    -27.70574128	      2.26471467	     80.28343056	     80.26411707
      2.84583330	     -0.57998157	     -0.35848751	     -0.35895954	      0.19334071	      0.72865086	     -0.05024129	     56.33565146	     -9.26078381	      1.91986827	     83.49055619	      1.45718510	     26.51028282	    -11.28109705	     -7.49999987	     55.92166970	     -6.48021143	      2.09279320	     85.66506439	      1.49513743	     25.50213369	     -7.93834600	     -7.49999987	    -43.24290104	      3.62252869	      0.79924182	     37.68301010	    -32.21338241	     -4.53825272	     87.07457489	     82.59518388	     49.01363371	    -28.81124902	      3.77238662	     82.70548624	     79.57954672
      2.85000000	     -0.73324350	     -0.46502538	     -0.26066551	      0.19726693	      0.72646151	     -0.05064877	     56.05069617	     -8.82626373	      1.79635023	     83.35087077	      1.45474713	     26.63847624	    -11.81699248	     -7.49999987	     55.73576128	     -6.91781879	      2.08693577	     85.54638057	      1.49306600	     25.62210192	     -7.79481225	     -7.49999987	    -42.17224781	      3.50220783	      0.98814769	     38.64377527	    -33.24325369	     -4.28510653	     89.69769768	     82.68475729	     51.54662919	    -29.56835803	      5.16014999	     84.67933618	     79.28640633
      2.85416670	     -0.78956894	     -0.58840753	     -0.10584111	      0.19897392	      0.73181073	     -0.05062139	     55.43794760	     -8.48750144	      1.69635822	     82.78154567	      1.44481053	     26.25770309	    -12.79111240	     -7.49999987	     55.27171962	     -7.11390519	      1.99494725	     84.97294290	      1.48305763	     25.48078628	     -7.77300458	     -7.49999987	    -41.29885413	      3.42543876	      1.13985611	     39.61220908	    -34.04654351	     -3.75108733	     92.40000764	     82.71832441	     54.36951360	    -29.84857102	      6.83030896	     86.18552875	     78.86280677
      2.85833330	     -0.88457536	     -0.64378697	      0.01538215	      0.20074067	      0.73548392	     -0.05095069	     54.95158000	     -8.32676873	      1.64597862	     82.23109513	      1.43520336	     25.83496609	    -13.57476314	     -7.49999987	     54.85106129	     -7.11988506	      1.85983746	     84.36681788	      1.47247875	     25.40302868	     -7.81076600	     -7.49999987	    -40.40824121	      3.12949917	      2.27366931	     39.37886171	    -35.78776308	     -5.30932585	     95.84950399	     81.88792972	     58.65937064	    -28.98673227	     10.40199022	     86.30339228	     76.10792874
      2.86250000	     -1.05635680	     -0.73792857	      0.23959236	      0.20476519	      0.73651804	     -0.05000941	     54.46514986	     -8.29530766	      1.46187128	     81.68658243	      1.42569982	     25.63558644	    -14.12439880	     -7.49999987	     54.56239129	     -7.03138912	      1.86564955	     83.94357349	      1.46509174	     25.27945481	     -7.82629513	     -7.49999987	    -39.34020994	      3.31675763	      2.25571546	     40.83255316	    -36.85316269	     -4.29132351	     98.58264025	     81.65813105	     60.65443192	    -29.36511791	     10.82094548	     87.46455211	     75.71391028
      2.86666670	     -1.12823017	     -0.83953892	      0.43874708	      0.20549793	      0.73979722	     -0.04976651	     53.97388584	     -8.21357749	      1.26992226	     81.08203129	      1.41514841	     25.14674850	    -14.67729925	     -7.49999987	     54.19167895	     -6.98731011	      1.95386024	     83.34240086	      1.45459930	     24.98259441	     -7.84037540	     -7.49999987	    -38.40239215	      3.43421588	      2.31819348	     42.49746796	    -37.99035284	     -3.45462330	    101.13678089	     81.05992778	     62.68071521	    -29.81843120	     11.21134905	     88.44266618	     74.98261961
      2.87083330	     -1.08253009	     -0.96310417	      0.52860446	      0.20779739	      0.74435821	     -0.05067294	     53.31642660	     -8.12340522	      0.99111547	     80.38308579	      1.40294951	     24.47525921	    -15.64835654	     -7.49999987	     53.55190550	     -6.92500256	      2.06233498	     82.69459001	      1.44329287	     24.82425299	     -8.01371951	     -7.49999987	    -37.61397872	      3.58260767	      2.68861050	     44.42702502	    -39.33666030	     -2.67396030	    103.45379485	     80.91436309	     64.84271884	    -29.91325642	     11.68121967	     89.33853572	     74.56978479
      2.87500000	     -1.11725364	     -1.16580380	      0.49895160	      0.21327801	      0.74252607	     -0.05361416	     52.89493167	     -8.07379513	      0.80838672	     80.06728154	      1.39743769	     24.01258991	    -16.12834967	     -7.49999987	     53.15062960	     -6.92132737	      2.22017187	     82.46413231	      1.43927062	     25.04497588	     -8.26579221	     -7.49999987	    -36.48135922	      3.74499653	      3.06630573	     46.33416098	    -40.97439635	     -1.97162692	    105.59051628	     81.14797703	     66.68397846	    -30.31461399	     12.36278648	     90.23182046	     74.42139377
      2.87916670	     -1.26214590	     -1.23074659	      0.47125963	      0.21428977	      0.75018260	     -0.05315125	     52.34618781	     -7.98627937	      0.62603043	     79.23157844	      1.38285192	     23.64339049	    -16.32799692	     -7.49999987	     52.58479706	     -6.74838625	      2.28968551	     81.70886182	      1.42608867	     25.11057650	     -8.19010229	     -7.49999987	    -35.53940845	      3.90262674	      3.30569980	     48.64329784	    -42.05552670	     -0.57812275	    107.72701195	     80.02637993	     68.68182737	    -30.78577317	     13.22786874	     91.02685258	     73.39781034
      2.88333330	     -1.38320743	     -1.30426187	      0.38676762	      0.22078515	      0.75174308	     -0.04914670	     51.78384778	     -7.74549946	      0.42175923	     78.72947114	      1.37408849	     23.16130209	    -17.24221249	     -7.49999987	     51.93077096	     -6.95162653	      2.34268119	     81.06871706	      1.41491603	     25.26838507	     -8.07174556	     -7.49999987	    -34.45152996	      3.82742945	      3.58584188	     50.52252545	    -43.44997362	      0.43819007	    109.96039728	     80.42295846	     70.86139308	    -31.12764285	     14.50332323	     92.27142132	     73.47740751
      2.88750000	     -1.39899946	     -1.44341326	      0.33824667	      0.22259307	      0.75784135	     -0.04692571	     50.85479679	     -7.26275809	      0.06094885	     77.74757461	      1.35695116	     22.78000285	    -18.03869736	     -7.49999987	     51.12701987	     -7.17068977	      2.38495432	     80.15179107	      1.39891266	     24.88300149	     -8.29214066	     -7.49999987	    -33.51581021	      3.70691330	      3.73223363	     52.22513342	    -44.27799300	      0.73686813	    111.58138970	     80.74249592	     73.11850019	    -31.85610992	     15.95696603	     93.20248658	     73.58965730
      2.89166670	     -1.35017983	     -1.48642128	      0.24686177	      0.22677060	      0.75676941	     -0.04620149	     50.19720949	     -6.96298527	     -0.15399840	     77.32535603	      1.34958206	     22.76523885	    -18.35033470	     -7.49999987	     50.42933093	     -7.42930231	      2.33973519	     79.62290774	      1.38968190	     25.17077600	     -8.03240331	     -7.49999987	    -32.31912480	      3.50304775	      4.07550715	     54.59607478	    -45.52505326	      1.56756901	    112.60300320	     80.74533682	     75.87723429	    -32.12066649	     18.03743779	     93.42991308	     73.47654698
      2.89583330	     -1.46003249	     -1.59065446	      0.23886303	      0.23189333	      0.75996058	     -0.04837474	     49.53060538	     -6.79060344	     -0.36115799	     76.76147594	      1.33974049	     22.68512086	    -18.79876853	     -7.49999987	     49.97587460	     -7.53432888	      2.32688309	     79.29109989	      1.38389076	     25.16810599	     -8.19037836	     -7.49999987	    -31.09915200	      3.44513874	      4.27920851	     56.67170853	    -46.91832976	      2.05122593	    114.06082244	     81.14888585	     78.69841578	    -32.54425002	     19.97714944	     93.67889649	     73.83824490
      2.90000000	     -1.35594066	     -1.49851737	      0.11074394	      0.23026617	      0.76250865	     -0.05257346	     49.12208712	     -6.90599682	     -0.34247106	     76.33574485	      1.33231008	     22.53274109	    -19.25251391	     -7.49999987	     49.43531606	     -7.30375313	      2.00588701	     79.06630037	      1.37996727	     25.14847344	     -8.70582486	     -7.49999987	    -30.33585941	      3.20801065	      4.97176864	     60.41606676	    -49.20436590	      3.41126062	    114.68812920	     81.49140600	     82.14837318	    -32.11757154	     21.73760849	     92.54415464	     74.29746475
      2.90416670	     -1.15163263	     -1.47107732	      0.06279770	      0.23280172	      0.76511584	     -0.05431534	     48.53036362	     -7.13597368	     -0.47100072	     75.87820824	      1.32432456	     22.29791461	    -19.59161111	     -7.49999987	     48.84812376	     -6.99684484	      1.87333314	     78.87303128	      1.37659409	     24.98989585	     -9.36062531	     -7.49999987	    -29.80533313	      3.07253972	      5.53162324	     64.94239641	    -51.88667134	      5.30997961	    114.47866684	     81.37665283	     86.81915777	    -31.34045719	     24.31863067	     90.99185865	     74.89551775
